<svg xmlns="http://www.w3.org/2000/svg" viewBox="0 0 24 24" width="24" height="24" fill="none"><path fill="#829ED1" d="M12 23c-3.722 0-7.728-.985-7.728-3.149 0-1.364 1.594-2.394 4.49-2.895a.87.87 0 0 1 .993.7.86.86 0 0 1-.7.992c-2.34.405-3.024 1.075-3.067 1.22.122.364 2.16 1.413 6.012 1.413 3.853 0 5.89-1.05 6.013-1.45-.044-.109-.728-.779-3.068-1.184a.859.859 0 0 1 .293-1.692c2.896.501 4.49 1.53 4.49 2.895 0 2.164-4.006 3.15-7.728 3.15"/><path fill="#09130B" d="M12 12.532A3.806 3.806 0 0 1 8.198 8.73 3.81 3.81 0 0 1 12 4.926a3.807 3.807 0 0 1 3.802 3.804A3.806 3.806 0 0 1 12 12.532m0-5.89c-1.15 0-2.085.936-2.085 2.086 0 1.151.936 2.085 2.085 2.085s2.085-.935 2.085-2.085S13.149 6.642 12 6.642m0 13.74c-3.539 0-7.728-6.317-7.728-11.654C4.272 4.467 7.738 1 12 1s7.728 3.467 7.728 7.728c0 5.337-4.189 11.654-7.728 11.654m0-17.665a6.02 6.02 0 0 0-6.011 6.011c0 4.51 3.692 9.936 6.011 9.936s6.011-5.425 6.011-9.936A6.02 6.02 0 0 0 12 2.718"/></svg>