<svg xmlns="http://www.w3.org/2000/svg" viewBox="0 0 33 33" width="33" height="33" fill="none"><path fill="#829ED1" d="M29.207 21.15a6.96 6.96 0 0 0-2.411-3.505 4.31 4.31 0 0 0 1.37-3.145 4.34 4.34 0 0 0-4.333-4.333A4.34 4.34 0 0 0 19.5 14.5a4.34 4.34 0 0 0 4.333 4.333c.318 0 .626-.038.924-.104 1.216.616 2.14 1.68 2.534 2.995a.34.34 0 0 1-.055.305.33.33 0 0 1-.272.139H24.5a1 1 0 0 0 0 2h2.464c.745 0 1.43-.344 1.875-.943a2.33 2.33 0 0 0 .368-2.074M21.5 14.5a2.336 2.336 0 0 1 2.333-2.333 2.336 2.336 0 0 1 2.334 2.333 2.336 2.336 0 0 1-2.334 2.333A2.336 2.336 0 0 1 21.5 14.5M9.167 10.167A4.34 4.34 0 0 0 4.833 14.5c0 1.241.532 2.355 1.371 3.145a6.95 6.95 0 0 0-2.41 3.506 2.33 2.33 0 0 0 .367 2.073c.446.599 1.13.943 1.875.943H8.5a1 1 0 0 0 0-2H6.036a.33.33 0 0 1-.272-.14.34.34 0 0 1-.055-.304c.394-1.315 1.318-2.38 2.534-2.995.298.065.606.104.924.104a4.34 4.34 0 0 0 4.333-4.333 4.337 4.337 0 0 0-4.333-4.332m0 6.666A2.336 2.336 0 0 1 6.833 14.5a2.336 2.336 0 0 1 2.334-2.333A2.336 2.336 0 0 1 11.5 14.5a2.336 2.336 0 0 1-2.333 2.333"/><path fill="#09130B" d="M25.335 22.773c-.594-3.053-2.718-5.481-5.472-6.597A4.97 4.97 0 0 0 21.5 12.5c0-2.756-2.243-5-5-5s-5 2.244-5 5c0 1.459.639 2.76 1.637 3.676-2.754 1.116-4.878 3.544-5.472 6.599a2.25 2.25 0 0 0 .482 1.864c.45.546 1.114.861 1.821.861h13.063a2.35 2.35 0 0 0 1.821-.861c.435-.527.61-1.206.483-1.866M13.5 12.5c0-1.653 1.345-3 3-3s3 1.347 3 3-1.345 3-3 3-3-1.347-3-3m9.81 10.867a.37.37 0 0 1-.28.133H9.97a.36.36 0 0 1-.28-.133.25.25 0 0 1-.06-.211A7.01 7.01 0 0 1 16.5 17.5a7.01 7.01 0 0 1 6.87 5.655.25.25 0 0 1-.06.212"/></svg>