<svg xmlns="http://www.w3.org/2000/svg" viewBox="0 0 33 33" width="33" height="33" fill="none"><path fill="#829ED1" d="M16.5 18.833c-2.757 0-5-2.242-5-5s2.243-5 5-5 5 2.243 5 5-2.243 5-5 5m0-8c-1.655 0-3 1.346-3 3 0 1.655 1.345 3 3 3s3-1.345 3-3c0-1.654-1.345-3-3-3"/><path fill="#09130B" d="M16.5 29.5c-3.403 0-10.333-7.252-10.333-15.667C6.167 8.136 10.803 3.5 16.5 3.5s10.333 4.636 10.333 10.333c0 8.415-6.93 15.667-10.333 15.667m0-24c-4.595 0-8.333 3.739-8.333 8.333 0 7.518 6.292 13.667 8.333 13.667s8.333-6.15 8.333-13.667c0-4.594-3.738-8.333-8.333-8.333"/></svg>