<svg xmlns="http://www.w3.org/2000/svg" viewBox="0 0 29 28" width="29" height="28" fill="none"><g fill="#296197" clip-path="url(#a)"><path d="M14.5 2.333A8.16 8.16 0 0 0 6.333 10.5c0 6.125 8.167 15.167 8.167 15.167s8.167-9.042 8.167-15.167A8.16 8.16 0 0 0 14.5 2.333M8.667 10.5A5.835 5.835 0 0 1 14.5 4.667a5.836 5.836 0 0 1 5.833 5.833c0 3.36-3.36 8.388-5.833 11.527-2.427-3.115-5.833-8.202-5.833-11.527"/><path d="M14.5 13.417a2.917 2.917 0 1 0 0-5.834 2.917 2.917 0 0 0 0 5.834"/></g><defs><clipPath id="a"><path fill="#fff" d="M.5 0h28v28H.5z"/></clipPath></defs></svg>