<svg xmlns="http://www.w3.org/2000/svg" viewBox="0 0 20 20" width="20" height="20" fill="none"><g fill="#93A4BA" clip-path="url(#a)"><path d="M12.5 0h-5a4.17 4.17 0 0 0-4.166 4.167v11.666A4.17 4.17 0 0 0 7.5 20h5a4.17 4.17 0 0 0 4.167-4.167V4.167A4.17 4.17 0 0 0 12.5 0m-5 1.667h5a2.5 2.5 0 0 1 2.5 2.5v9.166H5V4.167a2.5 2.5 0 0 1 2.5-2.5m5 16.666h-5a2.5 2.5 0 0 1-2.5-2.5V15h10v.833a2.5 2.5 0 0 1-2.5 2.5"/><path d="M10 17.5a.833.833 0 1 0 0-1.667.833.833 0 0 0 0 1.667"/></g><defs><clipPath id="a"><path fill="#fff" d="M0 0h20v20H0z"/></clipPath></defs></svg>