<svg xmlns="http://www.w3.org/2000/svg" viewBox="0 0 33 33" width="33" height="33" fill="none"><path fill="#829ED1" d="M19.167 12.833h-5.334a1 1 0 0 0-1 1V24.5a1 1 0 0 0 1 1h5.334a1 1 0 0 0 1-1V13.833a1 1 0 0 0-1-1m-1 10.667h-3.334v-8.667h3.334zm7.333-9.667V24.5a1 1 0 0 1-2 0V13.833a1 1 0 0 1 2 0m-16 0V24.5a1 1 0 0 1-2 0V13.833a1 1 0 0 1 2 0"/><path fill="#09130B" d="M27.167 29.5H5.833A2.336 2.336 0 0 1 3.5 27.167v-1.334A2.336 2.336 0 0 1 5.833 23.5h21.334a2.336 2.336 0 0 1 2.333 2.333v1.334a2.336 2.336 0 0 1-2.333 2.333m-21.334-4a.333.333 0 0 0-.333.333v1.334c0 .184.15.333.333.333h21.334c.184 0 .333-.15.333-.333v-1.334a.333.333 0 0 0-.333-.333zm20.951-10.667H6.216A2.72 2.72 0 0 1 3.5 12.117c0-.944.477-1.805 1.277-2.304l8.728-5.456c1.799-1.124 4.191-1.122 5.988 0l8.73 5.458c.8.498 1.277 1.36 1.277 2.302a2.72 2.72 0 0 1-2.716 2.716M16.5 5.5a3.65 3.65 0 0 0-1.935.555L5.836 11.51a.717.717 0 0 0 .38 1.324h20.57a.717.717 0 0 0 .38-1.323l-8.73-5.457a3.66 3.66 0 0 0-1.935-.555z"/></svg>