<svg xmlns="http://www.w3.org/2000/svg" viewBox="0 0 24 24" width="24" height="24" fill="none"><path fill="#829ED1" d="M16 8.75a3.75 3.75 0 1 1 0-7.5 3.75 3.75 0 0 1 0 7.5m0-6a2.25 2.25 0 1 0 0 4.5 2.25 2.25 0 0 0 0-4.5"/><path fill="#09130B" d="M18.46 19.5H5.54a2.78 2.78 0 0 1-2.766-2.452 3 3 0 0 1-.024-.357 2.76 2.76 0 0 1 .943-2.062l.376-.338c.48-.428.802-1.006.911-1.64l.79-4.734a6.29 6.29 0 0 1 5.38-5.23.75.75 0 0 1 .2 1.486 4.8 4.8 0 0 0-4.101 3.991l-.789 4.74a4.36 4.36 0 0 1-1.393 2.507l-.376.338a1.26 1.26 0 0 0-.441.941q.003.095.016.189A1.28 1.28 0 0 0 5.54 18h12.92a1.273 1.273 0 0 0 1.274-1.152l.013-.102a1.3 1.3 0 0 0-.453-1.084l-.271-.224a4.34 4.34 0 0 1-1.453-2.56l-.51-3.086a.75.75 0 0 1 1.48-.244l.51 3.08a2.82 2.82 0 0 0 .938 1.663l.28.23a2.82 2.82 0 0 1 .968 2.407A2.79 2.79 0 0 1 18.46 19.5"/><path fill="#09130B" d="M12 22.75A3.755 3.755 0 0 1 8.25 19v-.25a.75.75 0 1 1 1.5 0V19a2.25 2.25 0 0 0 4.5 0v-.25a.75.75 0 1 1 1.5 0V19A3.755 3.755 0 0 1 12 22.75"/></svg>